# xmcd
#
# Track frame offsets:
#	150
#	13408
#	31380
#	54341
#	71429
#	85905
#	101173
#	119129
#	136549
#	159305
#	174025
#	190753
#
# Disc length: 2772 seconds
#
# Revision: 0
# Processed by: cddbd v1.5.1PL2 Copyright (c) Steve Scherf et al.
# Submitted via: EasyCDDAExtractor 8.2.0.1
#
DISCID=960ad20c
DTITLE=Laura Kenny - Drive
DYEAR=2005
DGENRE=Country
TTITLE0=Drive
TTITLE1=Cleopatra Madagascar
TTITLE2=Footprints
TTITLE3=Those Words You Said
TTITLE4=At Last
TTITLE5=To Go
TTITLE6=You Don't Miss What You Never Had
TTITLE7=Morning Run
TTITLE8=All I Want
TTITLE9=High Horse
TTITLE10=Sleep Song
TTITLE11=If You Feel Like Passing By
EXTD=
EXTT0=
EXTT1=
EXTT2=
EXTT3=
EXTT4=
EXTT5=
EXTT6=
EXTT7=
EXTT8=
EXTT9=
EXTT10=
EXTT11=
PLAYORDER=
